<svg width="100" height="100" viewBox="0 0 100 100" fill="none" xmlns="http://www.w3.org/2000/svg">
  <!-- Breathing lungs with detail -->
  <!-- Left lung -->
  <path d="M35 25 Q25 35 25 50 Q25 70 35 75 Q40 65 40 50 Q40 35 35 25" fill="#5DADE2" opacity="0.8"/>
  <!-- Right lung -->
  <path d="M65 25 Q75 35 75 50 Q75 70 65 75 Q60 65 60 50 Q60 35 65 25" fill="#5DADE2" opacity="0.8"/>
  <!-- Airway trachea -->
  <path d="M48 20 Q50 22 50 30" stroke="#5DADE2" stroke-width="3" fill="none" stroke-linecap="round"/>
  <!-- Air flow in arrows -->
  <path d="M15 40 L10 40 M12 37 L10 40 L12 43" stroke="#4F9FD8" stroke-width="1.5" fill="none" stroke-linecap="round" stroke-linejoin="round"/>
  <path d="M85 40 L90 40 M88 37 L90 40 L88 43" stroke="#4F9FD8" stroke-width="1.5" fill="none" stroke-linecap="round" stroke-linejoin="round"/>
  <!-- Oxygen particles -->
  <circle cx="8" cy="50" r="1.5" fill="#4F9FD8" opacity="0.6"/>
  <circle cx="92" cy="50" r="1.5" fill="#4F9FD8" opacity="0.6"/>
  <!-- Heartbeat line -->
  <path d="M30 75 L35 70 L40 80 L45 75" stroke="#B5A7E0" stroke-width="1" fill="none" stroke-linecap="round"/>
</svg>