<svg width="100" height="100" viewBox="0 0 100 100" fill="none" xmlns="http://www.w3.org/2000/svg">
  <!-- Container background -->
  <rect x="15" y="15" width="70" height="70" rx="12" fill="#F5F7FA" stroke="#4F9FD8" stroke-width="2"/>
  <!-- Top heart (larger) -->
  <path d="M50 28 C48 26 44 26 42 28 C40 30 40 33 46 38 C49 40 52 40 52 40 C52 40 55 40 58 38 C64 33 64 30 62 28 C60 26 56 26 54 28 L50 31 L50 28Z" fill="#E8A0BF"/>
  <!-- Bottom left heart -->
  <path d="M32 50 C30 48 27 48 25 50 C23 52 23 55 29 60 C31 61 33 61 33 61 C33 61 35 61 38 60 C44 55 44 52 42 50 C40 48 37 48 35 50 L32 52 L32 50Z" fill="#E8A0BF" opacity="0.8"/>
  <!-- Bottom right heart -->
  <path d="M68 50 C66 48 63 48 61 50 C59 52 59 55 65 60 C67 61 69 61 69 61 C69 61 71 61 74 60 C80 55 80 52 78 50 C76 48 73 48 71 50 L68 52 L68 50Z" fill="#E8A0BF" opacity="0.8"/>
  <!-- Sparkle accents -->
  <circle cx="40" cy="25" r="2" fill="#FFD700" opacity="0.6"/>
  <circle cx="60" cy="70" r="2" fill="#FFD700" opacity="0.6"/>
</svg>