<svg width="100" height="100" viewBox="0 0 100 100" fill="none" xmlns="http://www.w3.org/2000/svg">
  <!-- Favorites container -->
  <rect x="20" y="20" width="60" height="60" rx="10" fill="#F5F7FA" stroke="#4F9FD8" stroke-width="2"/>
  <!-- Three hearts inside -->
  <path d="M35 40 C33 38 30 38 28 40 C26 42 26 45 32 50 C35 52 37 52 37 52 C37 52 39 52 42 50 C48 45 48 42 46 40 C44 38 41 38 39 40 L35 43 L35 40Z" fill="#B5A7E0"/>
  <path d="M50 35 C48 33 45 33 43 35 C41 37 41 40 47 45 C50 47 52 47 52 47 C52 47 54 47 57 45 C63 40 63 37 61 35 C59 33 56 33 54 35 L50 38 L50 35Z" fill="#B5A7E0"/>
  <path d="M65 40 C63 38 60 38 58 40 C56 42 56 45 62 50 C65 52 67 52 67 52 C67 52 69 52 72 50 C78 45 78 42 76 40 C74 38 71 38 69 40 L65 43 L65 40Z" fill="#B5A7E0"/>
</svg>