<svg width="100" height="100" viewBox="0 0 100 100" fill="none" xmlns="http://www.w3.org/2000/svg">
  <!-- Background circle -->
  <circle cx="50" cy="50" r="50" fill="#E8F4F8"/>
  
  <!-- Hair -->
  <path d="M30 40 Q30 20 50 18 Q70 20 70 40 L70 55 Q50 58 30 55 Z" fill="#8B6B47"/>
  
  <!-- Face -->
  <circle cx="50" cy="48" r="22" fill="#F5D5B8"/>
  
  <!-- Eyes white -->
  <circle cx="40" cy="45" r="3.5" fill="white"/>
  <circle cx="60" cy="45" r="3.5" fill="white"/>
  
  <!-- Eyes iris -->
  <circle cx="40" cy="45" r="2.5" fill="#4F5D6F"/>
  <circle cx="60" cy="45" r="2.5" fill="#4F5D6F"/>
  
  <!-- Eye shine -->
  <circle cx="41" cy="44" r="1" fill="white"/>
  <circle cx="61" cy="44" r="1" fill="white"/>
  
  <!-- Eyebrows -->
  <path d="M33 38 Q40 35 47 38" stroke="#6B5436" stroke-width="1.5" fill="none" stroke-linecap="round"/>
  <path d="M53 38 Q60 35 67 38" stroke="#6B5436" stroke-width="1.5" fill="none" stroke-linecap="round"/>
  
  <!-- Nose -->
  <line x1="50" y1="45" x2="50" y2="55" stroke="#E8C4A0" stroke-width="1"/>
  
  <!-- Mouth -->
  <path d="M38 58 Q50 65 62 58" stroke="#D89898" stroke-width="2" fill="none" stroke-linecap="round"/>
  
  <!-- Neck -->
  <rect x="46" y="68" width="8" height="10" fill="#F5D5B8"/>
  
  <!-- Clothing/Shoulders -->
  <path d="M25 78 L25 75 Q25 70 50 70 Q75 70 75 75 L75 78" fill="#5DADE2" stroke="#4A8FB8" stroke-width="1"/>
  <path d="M25 78 Q25 85 35 90 L65 90 Q75 85 75 78" fill="#5DADE2"/>
  
  <!-- Calm aura -->
  <circle cx="50" cy="50" r="52" fill="none" stroke="#5DADE2" stroke-width="0.5" opacity="0.3"/>
</svg>