<svg width="100" height="100" viewBox="0 0 100 100" fill="none" xmlns="http://www.w3.org/2000/svg">
  <!-- Hair -->
  <path d="M30 35 Q30 15 50 15 Q70 15 70 35 L70 50 Q70 45 50 45 Q30 45 30 50 Z" fill="#8B6B47"/>
  <!-- Face -->
  <circle cx="50" cy="38" r="18" fill="#F4C4A0"/>
  <!-- Eyes -->
  <circle cx="43" cy="35" r="2.5" fill="#333"/>
  <circle cx="57" cy="35" r="2.5" fill="#333"/>
  <!-- Smile -->
  <path d="M43 42 Q50 45 57 42" stroke="#333" stroke-width="1.5" fill="none" stroke-linecap="round"/>
  <!-- Nose -->
  <line x1="50" y1="36" x2="50" y2="41" stroke="#D4A574" stroke-width="1"/>
  <!-- Neck -->
  <rect x="47" y="55" width="6" height="8" fill="#F4C4A0"/>
  <!-- Shoulders/Clothing -->
  <path d="M30 63 Q30 55 50 55 Q70 55 70 63 L70 80 Q50 90 30 80 Z" fill="#5DADE2"/>
  <!-- Decorative calm aura -->
  <circle cx="50" cy="50" r="42" fill="none" stroke="#5DADE2" stroke-width="0.5" opacity="0.3" stroke-dasharray="3,3"/>
</svg>