<svg width="100" height="100" viewBox="0 0 100 100" fill="none" xmlns="http://www.w3.org/2000/svg">
  <!-- Light bulb glass -->
  <path d="M50 15 Q40 20 40 32 Q40 45 50 50 Q60 45 60 32 Q60 20 50 15" fill="#FFD700" opacity="0.9" stroke="#FFA500" stroke-width="1.5"/>
  <!-- Filament -->
  <path d="M48 25 Q45 28 48 32 Q51 28 48 25" stroke="#FF6B35" stroke-width="2" fill="none" stroke-linecap="round"/>
  <!-- Base -->
  <rect x="44" y="50" width="12" height="8" rx="1" fill="#7B68B6"/>
  <!-- Threads -->
  <rect x="43" y="58" width="14" height="2" rx="0.5" fill="#7B68B6" opacity="0.8"/>
  <rect x="43" y="62" width="14" height="2" rx="0.5" fill="#7B68B6" opacity="0.8"/>
  <rect x="43" y="66" width="14" height="2" rx="0.5" fill="#7B68B6" opacity="0.8"/>
  <!-- Light rays -->
  <line x1="50" y1="5" x2="50" y2="0" stroke="#FFD700" stroke-width="2" stroke-linecap="round"/>
  <line x1="65" y1="15" x2="70" y2="10" stroke="#FFD700" stroke-width="2" stroke-linecap="round"/>
  <line x1="35" y1="15" x2="30" y2="10" stroke="#FFD700" stroke-width="2" stroke-linecap="round"/>
  <!-- Inner glow -->
  <circle cx="50" cy="32" r="18" fill="none" stroke="#FFD700" stroke-width="0.5" opacity="0.5"/>
</svg>